<svg width="26" height="29" viewBox="0 0 26 29" fill="none" xmlns="http://www.w3.org/2000/svg">
<g clip-path="url(#clip0)">
<path d="M25.1131 6.0293H0.886887C0.397919 6.0293 0 6.45522 0 6.97859V22.0051C0 22.5285 0.397919 22.9542 0.886887 22.9542H25.1131C25.6021 22.9542 26 22.5285 26 22.0051V6.97859C26 6.45522 25.6021 6.0293 25.1131 6.0293V6.0293ZM1.52502 8.36803L8.81253 13.5525L1.52502 20.3426V8.36803ZM13 14.5715L3.28729 7.66163H22.7127L13 14.5715ZM10.1297 14.4893L12.509 16.1821C12.6582 16.2883 12.829 16.3414 13 16.3414C13.1708 16.3414 13.3418 16.2881 13.491 16.1821L15.8703 14.4893L23.2033 21.3218H2.79674L10.1297 14.4893ZM17.1875 13.5523L24.475 8.36782V20.3426L17.1875 13.5523Z" fill="black"/>
</g>
<defs>
<clipPath id="clip0">
<rect width="26" height="27.8296" fill="white" transform="translate(0 0.59375)"/>
</clipPath>
</defs>
</svg>
