<svg width="42" height="42" viewBox="0 0 42 42" fill="none" xmlns="http://www.w3.org/2000/svg">
<g clip-path="url(#clip0)">
<path d="M23.8356 40.9507H17.0965C15.9709 40.9507 15.0552 40.0579 15.0552 38.9604V24.1398H11.1235C9.99785 24.1398 9.08218 23.2467 9.08218 22.1495V15.7989C9.08218 14.7014 9.99785 13.8086 11.1235 13.8086H15.0552V10.6284C15.0552 7.47514 16.0707 4.79239 17.9916 2.87064C19.9212 0.940119 22.6178 -0.0800781 25.7899 -0.0800781L30.9295 -0.0719391C32.0532 -0.0700608 32.9672 0.822729 32.9672 1.91837V7.81479C32.9672 8.91231 32.0519 9.8051 30.9266 9.8051L27.4662 9.80635C26.4108 9.80635 26.1421 10.0126 26.0846 10.0759C25.9899 10.1807 25.8772 10.4772 25.8772 11.2958V13.8083H30.6665C31.0271 13.8083 31.3764 13.895 31.6766 14.0584C32.3242 14.4112 32.7268 15.0783 32.7268 15.7992L32.7242 22.1498C32.7242 23.2467 31.8085 24.1395 30.6829 24.1395H25.8772V38.9604C25.8772 40.0579 24.9613 40.9507 23.8356 40.9507ZM17.5223 38.5453H23.4099V23.063C23.4099 22.3301 24.0215 21.7341 24.7728 21.7341H30.2572L30.2594 16.214H24.7725C24.0212 16.214 23.4099 15.6179 23.4099 14.8851V11.2958C23.4099 10.356 23.5078 9.28733 24.2353 8.48407C25.1144 7.51302 26.4998 7.40095 27.4655 7.40095L30.5002 7.3997V2.33283L25.788 2.32532C20.6902 2.32532 17.5223 5.50706 17.5223 10.6284V14.8851C17.5223 15.6176 16.911 16.214 16.1597 16.214H11.5492V21.7341H16.1597C16.911 21.7341 17.5223 22.3301 17.5223 23.063V38.5453ZM30.9247 2.33346H30.925H30.9247Z" fill="black"/>
</g>
<defs>
<clipPath id="clip0">
<rect width="42" height="41.0308" fill="white"/>
</clipPath>
</defs>
</svg>
