<svg width="161" height="103" viewBox="0 0 161 103" fill="none" xmlns="http://www.w3.org/2000/svg">
<g clip-path="url(#clip0)">
<path d="M65.7417 2.1721C58.3567 3.56178 55.4167 10.3584 55.4167 26.0419C55.4167 34.31 56.14 40.3241 57.5634 43.8509C59.22 47.9499 61.5884 49.6782 66.1617 50.1103C70.1284 50.4723 73.7334 49.2695 75.775 46.8755C78.785 43.3604 80.15 36.6806 80.15 25.5164C80.15 11.6196 78.2367 5.20838 73.4184 2.95453C72.0067 2.30056 70.91 2.09036 68.6584 2.03197C67.2234 2.00861 66.4184 2.04364 65.7417 2.1721ZM69.545 7.89432C72.9867 8.89863 74.1184 13.2428 74.1184 25.5748C74.13 33.0838 73.6867 37.3813 72.625 40.3825C71.9367 42.2977 71.1667 43.3137 69.9417 43.921C68.0284 44.8552 65.66 44.4465 64.3417 42.94C63.0117 41.4219 62.335 39.1213 61.8684 34.5669C61.6234 32.1145 61.5767 22.5152 61.81 19.7942C62.195 15.2398 62.7317 12.694 63.6767 10.7671C64.1434 9.83287 64.995 8.79353 65.6367 8.39648C66.6984 7.74251 68.32 7.53231 69.545 7.89432Z" fill="black"/>
<path d="M122.092 2.16043C118.008 2.8144 115.173 4.90477 113.995 8.13957C113.108 10.5569 113.237 13.5231 114.333 16.1624C115.232 18.3228 116.27 19.7475 121.088 25.388C123.235 27.8988 125.265 30.3278 125.615 30.7832C126.537 32.0211 127.248 33.3174 127.657 34.5669C127.972 35.5362 128.018 35.8865 128.065 37.3112C128.135 39.2264 127.972 40.2074 127.388 41.4219C126.315 43.6641 124.413 44.5866 121.1 44.4582C118.708 44.3647 116.958 43.8042 115.395 42.613L114.765 42.1342L114.555 42.4028C113.517 43.7692 113.05 46.0814 113.61 47.1324C113.96 47.8098 114.928 48.6272 115.967 49.141L116.842 49.5615L115.5 49.7717C107.567 51.0095 98.8867 51.8387 89.8333 52.2007C85.995 52.3642 75.4717 52.3642 71.6333 52.2007C60.5733 51.7452 50.54 50.6709 41.0083 48.9192C38.3017 48.4287 32.515 47.1675 30.45 46.6186L29.225 46.3033L29.155 43.5006C29.1083 41.9591 29.0733 38.5958 29.0617 36.015C29.05 30.9584 28.945 28.2374 28.5833 23.5896C28.1167 17.6221 27.8717 14.3289 27.9183 14.2939C27.93 14.2705 28.105 14.8194 28.28 15.5084C28.8633 17.6805 31.7217 27.6886 32.0833 28.7863C32.27 29.3585 33.11 31.951 33.95 34.5319L35.4783 39.2381H36.7967C37.8933 39.2381 38.1617 39.2031 38.3717 39.0279C38.535 38.8994 39.1767 37.1828 40.4133 33.6093C42.5717 27.3849 42.7117 26.9412 44.6717 19.911C45.5233 16.8864 46.235 14.3639 46.2583 14.3056C46.2933 14.2355 46.2933 14.5041 46.2583 14.8895C46.235 15.2748 46.13 16.7463 46.025 18.1593C45.9317 19.5723 45.745 22.1999 45.6167 23.9983C45.325 28.2024 45.1733 32.4415 45.0917 39.3549C45.0567 42.4028 44.9983 45.953 44.9517 47.2259L44.8817 49.5498L47.32 49.4797C48.6617 49.4447 49.8983 49.3629 50.085 49.2929C50.26 49.2228 50.4583 49.0359 50.5167 48.8725C50.5867 48.6739 50.6333 40.3592 50.6333 25.6215V2.68594H48.0667H45.5L45.2667 3.15306C44.9867 3.69025 38.9783 23.3093 38.1383 26.4273C37.835 27.5601 37.52 28.8096 37.4383 29.2067C37.3683 29.5921 37.2633 29.8723 37.205 29.8139C37.1583 29.7672 36.8433 28.6929 36.505 27.4433C36.1667 26.1938 34.3117 20.1212 32.3867 13.9552L28.875 2.74433L26.5533 2.7093C24.6167 2.68594 24.185 2.7093 23.9633 2.86111L23.6833 3.03628V23.8815V44.7151L21.2683 43.8976C12.9267 41.0599 6.13668 37.5915 1.82001 33.9596C-0.151656 32.3014 1.07492e-05 32.4181 1.07492e-05 32.6751C1.07492e-05 33.1655 0.583344 35.1742 0.980011 36.0383C2.12334 38.5024 4.72501 41.4569 7.73501 43.6991C18.27 51.5117 38.1383 57.1989 61.95 59.1958C68.74 59.768 70.8867 59.8498 80.5 59.8498C90.1133 59.8498 92.26 59.768 99.05 59.1958C122.862 57.1989 142.73 51.5117 153.265 43.6991C155.295 42.1926 157.792 39.6819 158.818 38.117C159.74 36.7273 160.323 35.5011 160.638 34.3217C161.082 32.64 161.117 32.7101 160.16 33.5392C154.618 38.3622 145.367 42.6598 133.467 45.9646C132.475 46.2332 131.647 46.4434 131.623 46.4201C131.6 46.3967 131.775 46.1281 131.997 45.8011C133.338 43.9443 134.097 40.9548 134.097 37.5448C134.097 33.9246 133.385 31.4489 131.565 28.7279C130.702 27.42 130.118 26.731 125.837 21.8379C120.937 16.2441 119.84 14.6909 119.467 12.7524C119.268 11.7714 119.373 10.4869 119.7 9.72778C120.983 6.76157 126.887 5.95579 131.553 8.11622L132.417 8.51327L132.708 8.12789C133.502 7.08855 133.922 5.37189 133.583 4.55443C133.502 4.36758 133.21 3.99388 132.918 3.72529C131.985 2.86111 130.503 2.35896 128.158 2.10204C126.723 1.95023 123.223 1.97359 122.092 2.16043Z" fill="black"/>
<path d="M85.19 2.95454L84.9333 3.22313V26.3923V49.5498L87.2433 49.4797C89.46 49.4213 90.125 49.3162 90.3233 49.0126C90.37 48.9308 90.4167 44.1195 90.4167 38.3155C90.4167 28.3542 90.2533 20.0161 89.9617 14.8895C89.9033 13.9202 89.8683 13.1261 89.88 13.1144C89.8917 13.091 90.9183 16.174 92.1667 19.946C93.4033 23.718 94.7683 27.7703 95.2 28.9615C95.6317 30.1526 97.7083 35.2676 99.82 40.3242L103.658 49.5264L106.015 49.4914C108.29 49.4564 108.383 49.4447 108.64 49.1878L108.908 48.9192L108.943 25.7967L108.967 2.66259L106.493 2.7093C103.728 2.74433 103.542 2.79104 103.413 3.44501C103.273 4.23912 103.448 28.471 103.647 33.3407C103.74 35.9099 103.857 38.2221 103.88 38.479C103.95 39.0396 103.997 39.168 101.033 30.1876C99.8083 26.4624 98.5483 22.7254 98.2333 21.8963C97.9183 21.0554 96.0167 16.4076 93.9983 11.5612L90.3467 2.74433L87.8967 2.7093C85.4583 2.68594 85.4467 2.68594 85.19 2.95454Z" fill="black"/>
<path d="M151.363 47.4477C151.037 47.6579 150.547 47.9732 150.278 48.1484C150.01 48.3236 149.66 48.5338 149.497 48.6039C149.345 48.6739 149.217 48.779 149.217 48.8257C149.217 48.8725 148.913 49.0827 148.552 49.2929C148.178 49.5031 147.805 49.7483 147.712 49.8417C147.618 49.9235 147.268 50.157 146.93 50.3556C146.58 50.5424 146.3 50.7643 146.3 50.8344C146.3 50.9044 146.335 50.9161 146.37 50.8811C146.417 50.8344 146.743 50.9511 147.105 51.1263C147.467 51.3132 148.132 51.6285 148.575 51.8387C149.812 52.4109 150.862 52.9014 151.363 53.1466C151.62 53.2751 151.842 53.3568 151.853 53.3335C151.877 53.3101 151.923 52.4109 151.958 51.3248C151.993 50.2271 152.04 48.9192 152.063 48.4053C152.122 47.0507 152.087 47.004 151.363 47.4477Z" fill="black"/>
<path d="M9.9867 48.3353C9.92836 48.4287 12.0867 58.6586 12.2034 58.8338C12.2384 58.9039 22.05 53.9524 22.05 53.859C22.05 53.7772 10.5467 48.3353 10.2084 48.2535C10.1267 48.2302 10.0217 48.2769 9.9867 48.3353Z" fill="black"/>
<path d="M131.542 56.2413C128.59 57.1054 126.082 57.7828 125.977 57.7594C125.86 57.7361 125.767 57.7477 125.767 57.7944C125.767 57.8295 126.828 58.9506 128.135 60.2585C129.442 61.5781 132.067 64.2524 133.98 66.2026C135.882 68.1528 137.468 69.7294 137.492 69.706C137.503 69.6827 137.457 66.8215 137.363 63.3532C137.282 59.8848 137.212 56.5099 137.2 55.8442C137.2 54.9684 137.165 54.6531 137.06 54.6647C136.978 54.6647 134.493 55.3771 131.542 56.2413Z" fill="black"/>
<path d="M32.095 56.8952C32.0833 56.9653 34.7317 71.5628 35.0117 72.9758C35.0817 73.3145 35.1867 73.5481 35.2333 73.5013C35.42 73.2911 43.0617 59.6512 43.015 59.5929C42.98 59.5695 40.6583 59.044 37.8467 58.4484C35.0233 57.8412 32.6083 57.3156 32.4683 57.2806C32.3283 57.2456 32.1883 57.1288 32.165 57.012C32.13 56.9069 32.1067 56.8485 32.095 56.8952Z" fill="black"/>
<path d="M109.2 61.076C105.49 61.6131 103.728 61.8234 103.635 61.7533C103.297 61.4847 103.507 61.9051 103.88 62.2671C104.102 62.4773 105.653 64.1706 107.345 66.0391C109.025 67.8959 110.437 69.4374 110.483 69.4608C110.518 69.4724 111.545 67.4521 112.758 64.9647C113.972 62.4656 114.975 60.3986 114.998 60.3402C115.068 60.2235 115.115 60.2118 109.2 61.076Z" fill="black"/>
<path d="M53.9583 61.2978C53.9 61.4029 57.1083 66.0975 57.2366 66.0975C57.3416 66.0975 62.44 62.2204 62.3933 62.1737C62.3583 62.1387 54.355 61.1927 54.0866 61.1927C54.0516 61.1927 54.005 61.2394 53.9583 61.2978Z" fill="black"/>
<path d="M71.4 62.851C71.4 62.8977 71.4467 62.9561 71.4934 62.9912C71.5517 63.0262 73.7684 66.915 76.4284 71.6329C79.0884 76.3625 81.2817 80.2279 81.3167 80.2279C81.3984 80.2279 91.28 63.0846 91.3267 62.8627C91.3617 62.7109 90.09 62.6992 81.3867 62.7343C75.8917 62.7459 71.4 62.8043 71.4 62.851Z" fill="black"/>
<path d="M59.57 85.4129C56.63 88.5893 54.1684 91.2169 54.0984 91.2402C54.0167 91.2636 54.1567 91.3804 54.4017 91.4972C54.635 91.6256 54.8334 91.7774 54.8334 91.8592C54.8334 91.9409 54.9267 91.9759 55.055 91.9409C55.1717 91.9059 55.3117 91.9409 55.3467 92.011C55.3934 92.0811 55.5217 92.1394 55.6267 92.1394C55.7317 92.1394 55.965 92.2095 56.14 92.3029C56.315 92.3964 57.0734 92.6416 57.8317 92.8401C58.59 93.0503 59.5467 93.3072 59.9667 93.4357C62.5684 94.2064 69.475 95.3509 69.9184 95.1057C70.0584 95.0122 69.8484 94.2765 68.6467 90.6213C67.8534 88.2156 66.7217 84.759 66.1267 82.9372C65.5434 81.1271 65.0184 79.644 64.9834 79.644C64.9367 79.644 62.4984 82.2482 59.57 85.4129Z" fill="black"/>
<path d="M97.9534 80.3564C96.7984 83.4277 92.7967 94.8021 92.8434 94.9188C92.8667 94.9889 93.0534 95.059 93.2634 95.0473C93.6717 95.0356 95.6667 94.7787 97.3 94.5101C97.9067 94.4167 98.6767 94.2882 98.9917 94.2415C99.61 94.1481 101.01 93.8328 102.958 93.354C103.6 93.1905 104.288 93.0387 104.475 93.0037C104.673 92.9686 105.292 92.7818 105.852 92.5949C106.423 92.4081 106.96 92.2563 107.053 92.2563C107.147 92.2563 107.38 92.1161 107.567 91.9293L107.905 91.614L103.297 86.0085C100.765 82.9255 98.5717 80.2746 98.42 80.1228L98.14 79.8542L97.9534 80.3564Z" fill="black"/>
<path d="M79.6834 91.0534C76.09 95.6545 76.3467 95.2808 76.5567 95.4794C76.7083 95.6429 77.3734 95.6545 81.55 95.6545C86.4384 95.6545 87.0917 95.6195 87.185 95.3626C87.2317 95.2341 82.04 88.2974 81.9 88.2974C81.865 88.2974 80.8734 89.5353 79.6834 91.0534Z" fill="black"/>
<path d="M49.4783 91.5088C49.77 91.8592 51.415 93.1321 52.5117 93.8444C57.4233 97.0442 64.365 99.3331 72.31 100.372C77.805 101.085 85.4117 101.085 90.9067 100.372C100.38 99.1346 108.325 96.145 113.225 91.976C113.528 91.719 113.423 91.7424 112.525 92.1511C106.272 95.0122 97.6733 96.8691 87.7333 97.5113C85.2483 97.6748 78.3183 97.6748 75.8333 97.5113C65.6833 96.8574 56.9567 94.9422 50.7617 92.011C49.98 91.6373 49.3967 91.4037 49.4783 91.5088Z" fill="black"/>
</g>
<defs>
<clipPath id="clip0">
<rect width="161" height="103" fill="white"/>
</clipPath>
</defs>
</svg>
