<svg width="129" height="82" viewBox="0 0 129 82" fill="none" xmlns="http://www.w3.org/2000/svg">
<path d="M0.584 8.376C0.584 8.28 0.62 8.16 0.692 8.016C0.788 7.872 0.956 7.8 1.196 7.8H10.448C10.448 8.52 10.436 9.108 10.412 9.564C10.412 9.996 10.376 10.272 10.304 10.392C10.232 10.488 10.112 10.536 9.944 10.536H3.536V18.06H5.552C7.688 18.06 9.212 18.576 10.124 19.608C11.06 20.64 11.528 22.284 11.528 24.54C11.528 27.204 10.952 29.28 9.8 30.768C8.672 32.256 7.124 33 5.156 33H0.584V8.376ZM5.084 30.444C6.188 30.444 6.968 30.012 7.424 29.148C7.904 28.26 8.144 26.82 8.144 24.828C8.144 23.292 7.94 22.236 7.532 21.66C7.148 21.084 6.416 20.796 5.336 20.796H3.536V30.372C3.848 30.42 4.364 30.444 5.084 30.444ZM20.2015 33.36C18.5695 33.36 17.2855 32.988 16.3495 32.244C15.4375 31.476 14.7655 30.156 14.3335 28.284C13.9015 26.388 13.6855 23.712 13.6855 20.256C13.6855 17.088 13.9255 14.568 14.4055 12.696C14.9095 10.824 15.6655 9.48 16.6735 8.664C17.6815 7.848 18.9895 7.44 20.5975 7.44C22.1815 7.44 23.4295 7.836 24.3415 8.628C25.2535 9.396 25.9135 10.692 26.3215 12.516C26.7535 14.34 26.9695 16.884 26.9695 20.148C26.9695 23.436 26.7295 26.04 26.2495 27.96C25.7935 29.88 25.0735 31.26 24.0895 32.1C23.1055 32.94 21.8095 33.36 20.2015 33.36ZM20.3095 30.372C21.1975 30.372 21.8935 30.036 22.3975 29.364C22.9015 28.692 23.2615 27.624 23.4775 26.16C23.7175 24.696 23.8375 22.716 23.8375 20.22C23.8375 17.724 23.7415 15.78 23.5495 14.388C23.3575 12.996 23.0215 11.988 22.5415 11.364C22.0615 10.74 21.3895 10.428 20.5255 10.428C19.6615 10.428 18.9655 10.776 18.4375 11.472C17.9335 12.144 17.5615 13.248 17.3215 14.784C17.0815 16.296 16.9615 18.36 16.9615 20.976C16.9615 23.28 17.0575 25.116 17.2495 26.484C17.4655 27.828 17.8135 28.812 18.2935 29.436C18.7735 30.06 19.4455 30.372 20.3095 30.372ZM33.7631 7.8C36.0431 7.8 37.7111 8.364 38.7671 9.492C39.8471 10.62 40.3871 12.42 40.3871 14.892C40.3871 17.676 39.7751 19.692 38.5511 20.94C37.3511 22.164 35.7671 22.776 33.7991 22.776H32.5031V32.424C32.5031 32.64 32.4551 32.784 32.3591 32.856C32.2871 32.928 32.0111 32.976 31.5311 33C31.0511 33 30.4151 33 29.6231 33V8.376C29.6231 8.16 29.6591 8.016 29.7311 7.944C29.8271 7.848 29.9831 7.8 30.1991 7.8H33.7631ZM34.0871 20.076C35.1431 20.076 35.9231 19.656 36.4271 18.816C36.9311 17.952 37.1831 16.536 37.1831 14.568C37.1831 13.2 36.9551 12.156 36.4991 11.436C36.0671 10.716 35.3351 10.356 34.3031 10.356H32.5031V20.076H34.0871ZM48.6429 33.36C47.0109 33.36 45.7269 32.988 44.7909 32.244C43.8789 31.476 43.2069 30.156 42.7749 28.284C42.3429 26.388 42.1269 23.712 42.1269 20.256C42.1269 17.088 42.3669 14.568 42.8469 12.696C43.3509 10.824 44.1069 9.48 45.1149 8.664C46.1229 7.848 47.4309 7.44 49.0389 7.44C50.6229 7.44 51.8709 7.836 52.7829 8.628C53.6949 9.396 54.3549 10.692 54.7629 12.516C55.1949 14.34 55.4109 16.884 55.4109 20.148C55.4109 23.436 55.1709 26.04 54.6909 27.96C54.2349 29.88 53.5149 31.26 52.5309 32.1C51.5469 32.94 50.2509 33.36 48.6429 33.36ZM48.7509 30.372C49.6389 30.372 50.3349 30.036 50.8389 29.364C51.3429 28.692 51.7029 27.624 51.9189 26.16C52.1589 24.696 52.2789 22.716 52.2789 20.22C52.2789 17.724 52.1829 15.78 51.9909 14.388C51.7989 12.996 51.4629 11.988 50.9829 11.364C50.5029 10.74 49.8309 10.428 48.9669 10.428C48.1029 10.428 47.4069 10.776 46.8789 11.472C46.3749 12.144 46.0029 13.248 45.7629 14.784C45.5229 16.296 45.4029 18.36 45.4029 20.976C45.4029 23.28 45.4989 25.116 45.6909 26.484C45.9069 27.828 46.2549 28.812 46.7349 29.436C47.2149 30.06 47.8869 30.372 48.7509 30.372ZM57.9416 38.688C57.2216 38.688 56.7416 38.64 56.5016 38.544C56.2856 38.448 56.1776 38.22 56.1776 37.86V30.264H56.7896C57.4856 30.264 58.0256 29.808 58.4096 28.896C58.7936 27.984 59.1416 25.992 59.4536 22.92C59.7896 19.848 60.1256 15 60.4616 8.376C60.4616 8.16 60.4856 8.016 60.5336 7.944C60.6056 7.872 60.7976 7.836 61.1096 7.836C61.4456 7.812 61.8896 7.8 62.4416 7.8H69.7136V30.264H71.5136V37.86C71.5136 38.22 71.3936 38.448 71.1536 38.544C70.9376 38.64 70.4696 38.688 69.7496 38.688C69.2936 36.648 69.0056 34.752 68.8856 33H58.7696C58.6976 34.464 58.4216 36.36 57.9416 38.688ZM66.7976 30.264V10.536H63.1976C62.7896 16.8 62.3936 21.372 62.0096 24.252C61.6256 27.108 61.1216 29.112 60.4976 30.264H66.7976ZM87.9926 32.46C88.0406 32.676 87.9806 32.832 87.8126 32.928C87.6446 33.024 87.2846 33.072 86.7326 33.072C86.0846 33.072 85.5086 33.048 85.0046 33L83.4926 26.592H77.2286L75.8246 32.496C75.7526 32.712 75.6326 32.868 75.4646 32.964C75.3206 33.036 74.9846 33.072 74.4566 33.072C73.9526 33.072 73.3526 33.036 72.6566 32.964L79.1006 8.196C79.1726 7.86 79.5326 7.692 80.1806 7.692C80.7326 7.692 81.1886 7.728 81.5486 7.8L87.9926 32.46ZM82.8446 23.964L81.6206 18.78C80.9246 15.852 80.5046 13.536 80.3606 11.832C80.0966 13.968 79.6646 16.284 79.0646 18.78L77.8406 23.964H82.8446ZM99.433 7.8V9.924C99.433 10.164 99.385 10.332 99.289 10.428C99.193 10.5 99.037 10.536 98.821 10.536H94.393V32.424C94.393 32.64 94.345 32.784 94.249 32.856C94.153 32.928 93.865 32.976 93.385 33C92.905 33 92.269 33 91.477 33V10.536H86.581V8.376C86.581 7.992 86.785 7.8 87.193 7.8H99.433ZM101.307 8.376C101.307 8.16 101.343 8.016 101.415 7.944C101.487 7.872 101.739 7.836 102.171 7.836C102.627 7.812 103.251 7.8 104.043 7.8V20.112C104.043 22.488 103.935 24.984 103.719 27.6C104.055 26.376 104.547 24.924 105.195 23.244C105.867 21.564 106.299 20.484 106.491 20.004L107.283 18.024L110.739 8.52C110.835 8.256 110.955 8.076 111.099 7.98C111.243 7.884 111.507 7.836 111.891 7.836C112.275 7.812 112.767 7.8 113.367 7.8V32.424C113.367 32.616 113.307 32.76 113.187 32.856C113.091 32.928 112.815 32.976 112.359 33C111.927 33 111.351 33 110.631 33V23.964C110.631 20.364 110.775 16.836 111.063 13.38C110.391 15.828 109.251 19.116 107.643 23.244L104.079 32.28C103.983 32.544 103.863 32.724 103.719 32.82C103.599 32.916 103.323 32.976 102.891 33C102.483 33 101.955 33 101.307 33V8.376ZM116.178 8.376C116.178 8.16 116.214 8.016 116.286 7.944C116.358 7.872 116.61 7.836 117.042 7.836C117.498 7.812 118.122 7.8 118.914 7.8V20.112C118.914 22.488 118.806 24.984 118.59 27.6C118.926 26.376 119.418 24.924 120.066 23.244C120.738 21.564 121.17 20.484 121.362 20.004L122.154 18.024L125.61 8.52C125.706 8.256 125.826 8.076 125.97 7.98C126.114 7.884 126.378 7.836 126.762 7.836C127.146 7.812 127.638 7.8 128.238 7.8V32.424C128.238 32.616 128.178 32.76 128.058 32.856C127.962 32.928 127.686 32.976 127.23 33C126.798 33 126.222 33 125.502 33V23.964C125.502 20.364 125.646 16.836 125.934 13.38C125.262 15.828 124.122 19.116 122.514 23.244L118.95 32.28C118.854 32.544 118.734 32.724 118.59 32.82C118.47 32.916 118.194 32.976 117.762 33C117.354 33 116.826 33 116.178 33V8.376ZM122.118 5.316C120.75 5.316 119.646 4.956 118.806 4.236C117.99 3.492 117.534 2.64 117.438 1.68C117.414 1.296 117.546 0.983999 117.834 0.743999C118.146 0.503999 118.626 0.299999 119.274 0.131998C119.49 1.188 119.814 1.992 120.246 2.544C120.678 3.072 121.326 3.336 122.19 3.336C122.982 3.336 123.558 3.12 123.918 2.688C124.302 2.256 124.65 1.548 124.962 0.563999C124.986 0.371999 125.118 0.275999 125.358 0.275999C125.67 0.275999 126.018 0.419999 126.402 0.707999C126.786 0.971999 127.026 1.26 127.122 1.572C126.594 2.844 125.97 3.792 125.25 4.416C124.53 5.016 123.486 5.316 122.118 5.316ZM15.02 50.8V75.424C15.02 75.64 14.972 75.784 14.876 75.856C14.804 75.928 14.528 75.976 14.048 76C13.568 76 12.908 76 12.068 76L12.176 67.18C12.224 65.62 12.332 63.64 12.5 61.24C12.668 58.84 12.788 57.208 12.86 56.344L12.248 58.504C11.312 61.96 10.724 64.012 10.484 64.66L8.576 70.204C8.504 70.396 8.372 70.492 8.18 70.492H6.92L5.048 64.66C4.736 63.724 3.968 61.012 2.744 56.524L2.708 56.56C2.78 57.304 2.9 58.84 3.068 61.168C3.236 63.496 3.332 65.452 3.356 67.036L3.428 75.424C3.428 75.64 3.368 75.784 3.248 75.856C3.152 75.928 2.876 75.976 2.42 76C1.964 76 1.352 76 0.584 76V51.376C0.584 51.136 0.632 50.98 0.728 50.908C0.824 50.836 0.968 50.8 1.16 50.8H3.248L6.704 61.744C6.968 62.56 7.208 63.364 7.424 64.156C7.64 64.924 7.784 65.452 7.856 65.74C7.928 65.452 8.06 64.924 8.252 64.156C8.468 63.388 8.684 62.62 8.9 61.852L12.104 51.376C12.176 51.16 12.248 51.016 12.32 50.944C12.392 50.848 12.512 50.8 12.68 50.8H15.02ZM17.8457 51.376C17.8457 51.16 17.8817 51.016 17.9537 50.944C18.0257 50.872 18.2777 50.836 18.7097 50.836C19.1657 50.812 19.7897 50.8 20.5817 50.8V63.112C20.5817 65.488 20.4737 67.984 20.2577 70.6C20.5937 69.376 21.0857 67.924 21.7337 66.244C22.4057 64.564 22.8377 63.484 23.0297 63.004L23.8217 61.024L27.2777 51.52C27.3737 51.256 27.4937 51.076 27.6377 50.98C27.7817 50.884 28.0457 50.836 28.4297 50.836C28.8137 50.812 29.3057 50.8 29.9057 50.8V75.424C29.9057 75.616 29.8457 75.76 29.7257 75.856C29.6297 75.928 29.3537 75.976 28.8977 76C28.4657 76 27.8897 76 27.1697 76V66.964C27.1697 63.364 27.3137 59.836 27.6017 56.38C26.9297 58.828 25.7897 62.116 24.1817 66.244L20.6177 75.28C20.5217 75.544 20.4017 75.724 20.2577 75.82C20.1377 75.916 19.8617 75.976 19.4297 76C19.0217 76 18.4937 76 17.8457 76V51.376ZM44.4838 50.8V52.924C44.4838 53.164 44.4358 53.332 44.3398 53.428C44.2438 53.5 44.0878 53.536 43.8718 53.536H39.4438V75.424C39.4438 75.64 39.3958 75.784 39.2998 75.856C39.2038 75.928 38.9158 75.976 38.4358 76C37.9558 76 37.3198 76 36.5278 76V53.536H31.6318V51.376C31.6318 50.992 31.8358 50.8 32.2438 50.8H44.4838ZM49.2734 73.372H55.4654C55.4654 74.068 55.4534 74.632 55.4294 75.064C55.4294 75.496 55.3814 75.76 55.2854 75.856C55.2134 75.952 55.0814 76 54.8894 76H46.3934V51.376C46.3934 51.28 46.4294 51.16 46.5014 51.016C46.5734 50.872 46.7294 50.8 46.9694 50.8H55.6094C55.6094 51.472 55.5974 52.024 55.5734 52.456C55.5734 52.888 55.5374 53.164 55.4654 53.284C55.3934 53.38 55.2614 53.428 55.0694 53.428H49.2734V60.952H54.7094C54.7094 61.6 54.6974 62.14 54.6734 62.572C54.6734 63.004 54.6374 63.292 54.5654 63.436C54.4934 63.556 54.3614 63.616 54.1694 63.616H49.2734V73.372ZM69.2647 81.688C68.7847 79.36 68.5087 77.464 68.4367 76H57.8887V51.376C57.8887 51.16 57.9367 51.016 58.0327 50.944C58.1287 50.872 58.4047 50.836 58.8607 50.836C59.3407 50.812 59.9887 50.8 60.8047 50.8V73.264H66.3127V51.376C66.3127 51.16 66.3487 51.016 66.4207 50.944C66.5167 50.872 66.8047 50.836 67.2847 50.836C67.7647 50.812 68.4007 50.8 69.1927 50.8V73.264H71.0287V80.86C71.0287 81.22 70.9087 81.448 70.6687 81.544C70.4527 81.64 69.9847 81.688 69.2647 81.688ZM73.252 51.448C73.252 51.208 73.3 51.052 73.396 50.98C73.492 50.908 73.768 50.86 74.224 50.836C74.704 50.812 75.352 50.8 76.168 50.8V61.06H78.184C80.32 61.06 81.844 61.576 82.756 62.608C83.692 63.64 84.16 65.284 84.16 67.54C84.16 70.204 83.584 72.28 82.432 73.768C81.304 75.256 79.756 76 77.788 76H73.252V51.448ZM77.716 73.444C78.82 73.444 79.6 73.012 80.056 72.148C80.536 71.26 80.776 69.82 80.776 67.828C80.776 66.292 80.572 65.236 80.164 64.66C79.78 64.084 79.06 63.796 78.004 63.796H76.168V73.372C76.504 73.42 77.02 73.444 77.716 73.444Z" fill="black"/>
</svg>
