<svg width="45" height="44" viewBox="0 0 45 44" fill="none" xmlns="http://www.w3.org/2000/svg">
<g clip-path="url(#clip0)">
<path d="M44.9952 21.0926C44.8606 15.3415 42.4453 9.98216 38.194 6.00197C33.9488 2.02748 28.3725 -0.101302 22.4976 0.00535523C16.6203 -0.102308 11.0468 2.02782 6.80157 6.00197C2.5502 9.98216 0.134926 15.3415 0.000343323 21.0923L0 21.1104V21.1285C0.030899 26.9896 2.59998 32.5616 7.0594 36.467V41.7808C7.0594 42.8121 7.79652 43.7107 8.81207 43.9173C8.96244 43.9478 9.11385 43.9629 9.26456 43.9629C9.67312 43.9629 10.0748 43.8515 10.4284 43.6355L14.8 40.9678C17.2654 41.8109 19.8379 42.2382 22.4533 42.2382H22.4863C22.6308 42.2409 22.7743 42.2423 22.9185 42.2423C28.6407 42.2419 34.0504 40.1209 38.194 36.2416C42.4453 32.2614 44.8606 26.9024 44.9952 21.1513L44.9959 21.1218L44.9952 21.0926ZM36.3678 34.3802C32.719 37.7962 27.9561 39.6641 22.9171 39.6641C22.7863 39.6641 22.6552 39.6627 22.5237 39.6604L22.5093 39.66H22.4952C20.0634 39.6647 17.6684 39.2518 15.3833 38.4331C14.8178 38.2306 14.2019 38.2926 13.6938 38.6028L9.69852 41.0409V36.1531C9.69852 35.6081 9.4558 35.0892 9.03282 34.7296C5.00153 31.3062 2.67208 26.3514 2.63947 21.1332C2.76203 16.076 4.88823 11.3643 8.6277 7.86344C12.3713 4.35885 17.2901 2.48463 22.4715 2.58357L22.4976 2.58391L22.5237 2.58357C27.7085 2.48363 32.6242 4.35885 36.3678 7.86344C40.1039 11.3613 42.2297 16.0693 42.3557 21.1218C42.2301 26.1746 40.1042 30.8823 36.3678 34.3802Z" fill="black"/>
<path d="M34.6787 14.0575L26.3013 18.5196L21.2829 14.3157C20.4147 13.5886 19.1011 13.6379 18.2929 14.4278L7.70107 24.7752C7.28634 25.183 7.05871 25.7237 7.06077 26.2982C7.06249 26.8731 7.2932 27.4128 7.71034 27.8176C8.13572 28.2305 8.69224 28.4458 9.25804 28.4458C9.61716 28.4458 9.9797 28.3593 10.3151 28.1815L18.6929 23.7193L23.7164 27.9249C24.5847 28.6521 25.8982 28.6028 26.7064 27.8129L37.3 17.4638C38.0635 16.7108 38.1476 15.5057 37.4967 14.6585C36.8454 13.8073 35.6342 13.549 34.6787 14.0575ZM25.1264 25.7099L20.038 21.45C19.6824 21.1522 19.2326 20.9986 18.7801 20.9986C18.4642 20.9986 18.147 21.0734 17.86 21.2263L11.7169 24.4981L19.8726 16.5307L24.9551 20.7886C25.5594 21.2947 26.4348 21.385 27.1342 21.0127L33.2924 17.7324L25.1264 25.7099Z" fill="black"/>
</g>
<defs>
<clipPath id="clip0">
<rect width="45" height="43.9615" fill="white"/>
</clipPath>
</defs>
</svg>
