<svg width="37" height="37" viewBox="0 0 37 37" fill="none" xmlns="http://www.w3.org/2000/svg">
<g clip-path="url(#clip0)">
<path d="M26.5922 37C25.3979 37 24.2136 36.7888 23.0556 36.3681C17.954 34.5149 13.2186 31.4965 9.36125 27.6392C5.50386 23.7819 2.48545 19.0464 0.632276 13.9448C0.0367591 12.3053 -0.138984 10.6129 0.110106 8.91447C0.343442 7.32353 0.959698 5.77906 1.89232 4.44798C2.82906 3.11105 4.07791 1.99907 5.50379 1.2323C7.02434 0.414643 8.684 0 10.4368 0C10.982 0 11.4531 0.380897 11.5674 0.913906L13.3822 9.38302C13.4643 9.76651 13.3465 10.1655 13.0692 10.4429L9.96818 13.5438C12.8935 19.36 17.6403 24.1068 23.4564 27.0321L26.5574 23.9311C26.8347 23.6538 27.2338 23.5361 27.6173 23.6181L36.0864 25.4329C36.6195 25.5472 37.0003 26.0183 37.0003 26.5635C37.0003 28.3163 36.5856 29.976 35.7679 31.4965C35.0011 32.9224 33.8892 34.1713 32.5522 35.108C31.2212 36.0406 29.6767 36.6569 28.0857 36.8902C27.5872 36.9634 27.0887 36.9999 26.5922 37ZM9.513 2.36299C7.20095 2.61822 5.14884 3.83007 3.78611 5.77501C2.25371 7.96204 1.89637 10.652 2.80572 13.1553C6.36856 22.9633 14.0371 30.6319 23.8451 34.1947C26.3483 35.104 29.0383 34.7468 31.2254 33.2143C33.1704 31.8516 34.3822 29.7995 34.6374 27.4874L27.7478 26.0111L24.5093 29.2496C24.1647 29.5942 23.6411 29.6858 23.2001 29.4785C16.3214 26.247 10.7535 20.679 7.52187 13.8003C7.3147 13.3593 7.40618 12.8357 7.7508 12.4911L10.9893 9.25258L9.513 2.36299Z" fill="black"/>
</g>
<defs>
<clipPath id="clip0">
<rect width="37" height="37" fill="white"/>
</clipPath>
</defs>
</svg>
