<svg width="21" height="23" viewBox="0 0 21 23" fill="none" xmlns="http://www.w3.org/2000/svg">
<g clip-path="url(#clip0)">
<path d="M15.0931 22.9855C14.4152 22.9855 13.743 22.8573 13.0858 22.6017C10.1903 21.4758 7.50264 19.6421 5.31332 17.2988C3.12399 14.9554 1.41084 12.0786 0.359035 8.97937C0.0210394 7.98337 -0.0787066 6.95523 0.0626685 5.92341C0.195103 4.9569 0.54487 4.01863 1.0742 3.20999C1.60586 2.3978 2.31466 1.72226 3.12395 1.25644C3.98697 0.759711 4.92893 0.507812 5.92377 0.507812C6.23318 0.507812 6.50059 0.739209 6.56543 1.06302L7.59546 6.20805C7.64209 6.44103 7.57519 6.68345 7.41782 6.85193L5.65779 8.73577C7.31812 12.2691 10.0122 15.1528 13.3133 16.93L15.0733 15.0461C15.2307 14.8776 15.4572 14.8061 15.6748 14.856L20.4816 15.9585C20.7842 16.0279 21.0003 16.3141 21.0003 16.6453C21.0003 17.7101 20.765 18.7184 20.3009 19.6422C19.8657 20.5084 19.2346 21.2671 18.4758 21.8361C17.7203 22.4027 16.8437 22.7771 15.9407 22.9189C15.6578 22.9633 15.3749 22.9855 15.0931 22.9855ZM5.39945 1.94334C4.0872 2.0984 2.92249 2.8346 2.14905 4.01617C1.27931 5.3448 1.07649 6.97898 1.59261 8.49976C3.61476 14.4581 7.96721 19.1169 13.5339 21.2813C14.9546 21.8337 16.4814 21.6167 17.7227 20.6857C18.8266 19.8578 19.5144 18.6112 19.6593 17.2066L15.7489 16.3097L13.9109 18.2771C13.7153 18.4865 13.4181 18.5421 13.1678 18.4162C9.2637 16.453 6.10349 13.0704 4.26935 8.89157C4.15176 8.62365 4.20368 8.30555 4.39928 8.09624L6.23736 6.12881L5.39945 1.94334Z" fill="black"/>
</g>
<defs>
<clipPath id="clip0">
<rect width="21" height="22.4777" fill="white" transform="translate(0 0.507812)"/>
</clipPath>
</defs>
</svg>
