<svg width="46" height="45" viewBox="0 0 46 45" fill="none" xmlns="http://www.w3.org/2000/svg">
<g clip-path="url(#clip0)">
<path d="M45.6204 6.52047C45.1697 5.98319 44.4226 5.78395 43.7582 6.02304L1.56254 20.9488C0.719551 21.2487 0.127845 21.976 0.0179973 22.8468C-0.0907979 23.7135 0.299461 24.5545 1.03155 25.0385L7.06301 29.0687C7.64735 29.4593 8.39874 29.5012 9.02448 29.1779L22.108 22.4246L11.9111 29.8774C11.4324 30.2274 11.1463 30.7856 11.1463 31.3703V38.2738C11.1463 38.9859 11.5454 39.6383 12.1876 39.977C12.8309 40.3157 13.6079 40.282 14.2189 39.8877L18.8013 36.9124L23.3075 39.9199C23.7024 40.1848 24.1726 40.3243 24.6471 40.3243C24.8075 40.3243 24.9686 40.3081 25.1272 40.2758C25.76 40.1467 26.3198 39.764 26.6633 39.226L45.7541 8.4126C46.1257 7.81933 46.0724 7.06014 45.6204 6.52047ZM24.5464 37.552L19.8798 34.4373C19.5552 34.2202 19.181 34.1116 18.8073 34.1116C18.4416 34.1116 18.0755 34.2157 17.7551 34.4239L13.8431 36.9639V31.7599L31.8487 18.5998C32.6527 18.012 32.8552 16.9423 32.3193 16.1117C31.783 15.281 30.7095 15.0004 29.8219 15.4586L8.18922 26.6249L3.08778 23.2161L41.9441 9.47168L24.5464 37.552Z" fill="black"/>
</g>
<defs>
<clipPath id="clip0">
<rect width="46" height="44.9385" fill="white"/>
</clipPath>
</defs>
</svg>
