<svg width="45" height="44" viewBox="0 0 45 44" fill="none" xmlns="http://www.w3.org/2000/svg">
<g clip-path="url(#clip0)">
<path d="M38.6083 6.24414C34.4864 2.21733 29.0073 0 23.1777 0C23.1773 0 23.1759 0 23.1756 0C20.2924 0.0003354 17.4826 0.545696 14.825 1.62132C12.167 2.69695 9.78567 4.2522 7.74668 6.24414C3.62509 10.2706 1.35538 15.6243 1.35538 21.3187C1.35538 24.7146 2.19412 28.0894 3.78336 31.0963L0.115301 41.3333C-0.143221 42.0555 0.0397696 42.8403 0.593892 43.3813C0.981504 43.7603 1.49168 43.9615 2.01628 43.9615C2.24116 43.9615 2.46843 43.9246 2.69022 43.8488L13.1691 40.2658C16.247 41.8183 19.7015 42.6377 23.1777 42.6377C29.0066 42.6377 34.4864 40.4201 38.6083 36.3936C42.7299 32.3671 44.9999 27.0134 44.9999 21.319C44.9999 15.6243 42.7302 10.2706 38.6083 6.24414ZM36.742 34.5703C33.1189 38.1102 28.3014 40.0592 23.1777 40.0592C20.0431 40.0592 16.9292 39.3018 14.1723 37.8683C13.6724 37.6087 13.0816 37.5641 12.5511 37.7456L3.0308 41.0006L6.36309 31.7C6.54883 31.1811 6.50282 30.6039 6.23709 30.1159C4.77007 27.4233 3.9945 24.3812 3.9945 21.3187C3.9945 16.3132 5.9899 11.6068 9.61298 8.06737C13.2357 4.52823 18.0525 2.57889 23.1759 2.57822H23.1777C28.3018 2.57822 33.1189 4.52756 36.742 8.06737C40.3654 11.6068 42.3608 16.3128 42.3608 21.3187C42.3608 26.3245 40.3654 31.0309 36.742 34.5703Z" fill="black"/>
<path d="M31.2877 23.223C30.2838 22.2423 28.6503 22.2423 27.6464 23.223L26.5485 24.2956C23.8221 22.8443 21.6159 20.6891 20.13 18.0256L21.228 16.953C22.2322 15.9723 22.2322 14.3765 21.228 13.3958L18.2692 10.5053C17.2654 9.5246 15.6318 9.5246 14.628 10.5053L12.2611 12.8176C10.9053 14.1421 10.8377 16.4191 12.0705 19.2294C13.141 21.6694 15.1 24.3513 17.5867 26.7806C20.0734 29.2099 22.8186 31.1237 25.3163 32.1695C26.683 32.7417 27.9262 33.0271 29.0005 33.0271C30.1873 33.0271 31.1679 32.6786 31.8796 31.9833L34.2464 29.6707V29.6711C34.7329 29.1958 35.0007 28.5643 35.0007 27.8924C35.0007 27.2203 34.7329 26.5887 34.2464 26.1138L31.2877 23.223ZM30.0133 30.1601C29.6264 30.5381 28.4364 30.6706 26.3562 29.7999C24.1596 28.8802 21.708 27.1603 19.453 24.9574C17.1981 22.7545 15.4379 20.3597 14.4965 18.2138C13.6049 16.1816 13.7405 15.0188 14.1274 14.6408L16.4489 12.3728L19.3164 15.1744L17.942 16.5174C17.3206 17.1244 17.1706 18.0451 17.5692 18.8085C19.3761 22.2698 22.2041 25.0325 25.7471 26.7977C26.5289 27.1871 27.4713 27.0409 28.0927 26.4335L29.4671 25.0908L32.3348 27.8924L30.0133 30.1601Z" fill="black"/>
</g>
<defs>
<clipPath id="clip0">
<rect width="45" height="43.9615" fill="white"/>
</clipPath>
</defs>
</svg>
